HIERARCHY
ROOT Hips
{
  OFFSET -4.35178 90.3298 111.633
  CHANNELS 6 Xposition Yposition Zposition Zrotation Xrotation Yrotation
  JOINT LeftUpLeg
  {
    OFFSET 0.103456 1.85784 10.5485
    CHANNELS 6 Xposition Yposition Zposition Zrotation Xrotation Yrotation
    JOINT LeftLeg
    {
      OFFSET 43.5 -4.2e-05 0
      CHANNELS 6 Xposition Yposition Zposition Zrotation Xrotation Yrotation
      JOINT LeftFoot
      {
        OFFSET 42.3722 1.9e-05 0
        CHANNELS 6 Xposition Yposition Zposition Zrotation Xrotation Yrotation
        JOINT LeftToe
        {
          OFFSET 17.3 0 0
          CHANNELS 6 Xposition Yposition Zposition Zrotation Xrotation Yrotation
          End Site
          {
            OFFSET 0 0 0
          }
        }
      }
    }
  }
  JOINT RightUpLeg
  {
    OFFSET 0.103456 1.85782 -10.5485
    CHANNELS 6 Xposition Yposition Zposition Zrotation Xrotation Yrotation
    JOINT RightLeg
    {
      OFFSET 43.5 -2.7e-05 0
      CHANNELS 6 Xposition Yposition Zposition Zrotation Xrotation Yrotation
      JOINT RightFoot
      {
        OFFSET 42.3723 0 0
        CHANNELS 6 Xposition Yposition Zposition Zrotation Xrotation Yrotation
        JOINT RightToe
        {
          OFFSET 17.3 0 1.7e-05
          CHANNELS 6 Xposition Yposition Zposition Zrotation Xrotation Yrotation
          End Site
          {
            OFFSET 0 0 0
          }
        }
      }
    }
  }
  JOINT Spine
  {
    OFFSET 6.90197 -2.60373 0
    CHANNELS 6 Xposition Yposition Zposition Zrotation Xrotation Yrotation
    JOINT Spine1
    {
      OFFSET 12.5881 0 0
      CHANNELS 6 Xposition Yposition Zposition Zrotation Xrotation Yrotation
      JOINT Spine2
      {
        OFFSET 12.3432 -1.8e-05 0
        CHANNELS 6 Xposition Yposition Zposition Zrotation Xrotation Yrotation
        JOINT Neck
        {
          OFFSET 25.8329 2.3e-05 0
          CHANNELS 6 Xposition Yposition Zposition Zrotation Xrotation Yrotation
          JOINT Head
          {
            OFFSET 11.7666 0 0
            CHANNELS 6 Xposition Yposition Zposition Zrotation Xrotation Yrotation
            End Site
            {
              OFFSET 0 0 0
            }
          }
        }
        JOINT LeftShoulder
        {
          OFFSET 19.7459 -1.48035 6.0001
          CHANNELS 6 Xposition Yposition Zposition Zrotation Xrotation Yrotation
          JOINT LeftArm
          {
            OFFSET 11.2841 1.8e-05 -2e-05
            CHANNELS 6 Xposition Yposition Zposition Zrotation Xrotation Yrotation
            JOINT LeftForeArm
            {
              OFFSET 33 -1.3e-05 1.9e-05
              CHANNELS 6 Xposition Yposition Zposition Zrotation Xrotation Yrotation
              JOINT LeftHand
              {
                OFFSET 25.2 3.2e-05 1.1e-05
                CHANNELS 6 Xposition Yposition Zposition Zrotation Xrotation Yrotation
                End Site
                {
                  OFFSET 0 0 0
                }
              }
            }
          }
        }
        JOINT RightShoulder
        {
          OFFSET 19.7461 -1.48036 -6.00008
          CHANNELS 6 Xposition Yposition Zposition Zrotation Xrotation Yrotation
          JOINT RightArm
          {
            OFFSET 11.2841 0 0
            CHANNELS 6 Xposition Yposition Zposition Zrotation Xrotation Yrotation
            JOINT RightForeArm
            {
              OFFSET 33.0001 1.6e-05 0
              CHANNELS 6 Xposition Yposition Zposition Zrotation Xrotation Yrotation
              JOINT RightHand
              {
                OFFSET 25.1998 0.000123 0.000432
                CHANNELS 6 Xposition Yposition Zposition Zrotation Xrotation Yrotation
                End Site
                {
                  OFFSET 0 0 0
                }
              }
            }
          }
        }
      }
    }
  }
}
MOTION
Frames:	8
Frame Time:	0.0333333
-134.787 81.6133 238.199 -78.2626 -69.5037 -166.736 0.103456 1.85784 10.5485 11.9448 -7.02808 164.29 43.5 -4.2e-05 1e-05 -24.9036 -24.6899 9.1807 42.3722 1.9e-05 -2.84217e-14 94.5188 -24.636 36.7253 17.3 1.42109e-14 3e-06 21.4546 -1e-06 0.003093 0.103456 1.85782 -10.5485 -35.2233 -1.87936 -176.091 43.5 -2.7e-05 4e-06 -44.5727 7.01205 0.329224 42.3723 2.84217e-14 1e-05 82.2894 12.993 -5.332 17.3 -6e-06 1.7e-05 21.4546 -1.9e-05 -0.003116 6.90197 -2.60373 -3e-06 13.558 -0.399002 -1.22532 12.5881 1e-05 8e-06 17.1071 -0.89168 -2.30117 12.3432 -1.8e-05 -5e-06 16.8067 -0.775481 -2.23072 25.8329 2.3e-05 7e-06 9.49355 1.27978 -7.42127 11.7666 -8e-06 -6e-06 -40.5399 -5.66288 13.0057 19.7459 -1.48035 6.0001 -177.268 20.9909 -82.2776 11.2841 1.8e-05 -2e-05 2.36449 -20.3769 51.582 33 -1.3e-05 1.9e-05 -85.6681 0.514031 -5.05986 25.2 3.2e-05 1.1e-05 -29.169 50.7731 -12.9813 19.7461 -1.48036 -6.00008 -164.259 -17.2192 72.8618 11.2841 0 -1e-06 -9.35203 16.3995 -48.3374 33.0001 1.6e-05 -1e-06 -99.7872 -10.4052 23.845 25.1998 0.000123 0.000432 -7.13979 -20.7956 14.8048 
-134.134 80.1487 238.37 -80.2329 -70.2541 -168.367 0.103456 1.85784 10.5485 9.57459 -4.30974 165.017 43.5 -4.2e-05 1e-05 -30.4197 -23.7172 9.2686 42.3722 1.9e-05 0 95.151 -24.9461 35.0868 17.3 -1.42109e-14 3e-06 21.4546 -1e-06 0.003093 0.103456 1.85782 -10.5485 -38.4865 -1.47686 -176.591 43.5 -2.7e-05 4e-06 -39.7376 7.93543 -1.31388 42.3723 2.84217e-14 1e-05 81.1921 13.401 -6.36343 17.3 -6e-06 1.7e-05 21.4546 -1.9e-05 -0.003116 6.90197 -2.60373 -3e-06 14.3679 -1.12766 -1.06283 12.5881 1e-05 8e-06 18.7379 -2.2876 -1.78039 12.3432 -1.8e-05 -5e-06 18.4598 -2.11165 -1.62698 25.8329 2.3e-05 7e-06 9.1334 1.2673 -7.84308 11.7666 -8e-06 -6e-06 -43.955 -5.50537 12.9858 19.7459 -1.48035 6.0001 -177.678 24.4581 -85.7496 11.2841 1.8e-05 -2e-05 5.72365 -26.4277 51.8258 33 -1.3e-05 1.9e-05 -83.7994 -1.18538 -5.40624 25.2 3.2e-05 1.1e-05 -29.1177 48.3334 -12.2072 19.7461 -1.48036 -6.00008 -162.493 -19.7177 74.7046 11.2841 0 -1e-06 -6.83847 22.8915 -49.5788 33.0001 1.6e-05 -1e-06 -97.7234 -12.0805 23.5611 25.1998 0.000123 0.000432 -6.3883 -20.7136 14.6143 
-133.202 78.2644 236.704 -79.7955 -66.9252 -168.411 0.103456 1.85784 10.5485 10.6899 -3.21508 165.34 43.5 -4.2e-05 1e-05 -34.1081 -23.8775 7.03157 42.3722 1.9e-05 1.42109e-14 101.663 -26.4467 36.5048 17.3 -1.42109e-14 3e-06 21.4546 -1e-06 0.003093 0.103456 1.85782 -10.5485 -39.7735 -2.59213 -174.36 43.5 -2.7e-05 4e-06 -35.6255 8.68118 -4.88848 42.3723 -2.84217e-14 1e-05 80.8855 13.5209 -4.89916 17.3 -6e-06 1.7e-05 21.4546 -1.9e-05 -0.003116 6.90197 -2.60373 -3e-06 14.9639 -0.99713 -1.11536 12.5881 1e-05 8e-06 19.927 -2.03888 -1.90761 12.3432 -1.8e-05 -5e-06 19.6446 -1.85342 -1.77219 25.8329 2.3e-05 7e-06 9.15224 1.5901 -8.42199 11.7666 -8e-06 -6e-06 -45.7853 -4.57145 12.8996 19.7459 -1.48035 6.0001 -178.399 26.4871 -86.7032 11.2841 1.8e-05 -2e-05 7.16336 -30.5836 50.7929 33 -1.3e-05 1.9e-05 -84.5396 2.40511 -5.70353 25.2 3.2e-05 1.1e-05 -29.8001 46.9178 -11.1398 19.7461 -1.48036 -6.00008 -162.798 -20.7964 74.546 11.2841 0 -1e-06 -5.12072 24.9837 -49.599 33.0001 1.6e-05 -1e-06 -96.8233 -12.5871 23.4724 25.1998 0.000123 0.000432 -5.96388 -21.1515 15.1549 
-132.384 76.6534 235.142 -79.7806 -65.578 -168.192 0.103456 1.85784 10.5485 12.0016 -1.86503 164.987 43.5 -4.2e-05 1e-05 -35.4775 -24.8024 6.75527 42.3722 1.9e-05 2.84217e-14 102.182 -25.6142 36.4164 17.3 -1.42109e-14 3e-06 21.4546 -1e-06 0.003093 0.103456 1.85782 -10.5485 -41.6245 -2.77911 -174.158 43.5 -2.7e-05 4e-06 -33.5283 9.03112 -6.7373 42.3723 0 1e-05 79.5516 10.783 -3.85002 17.3 -6e-06 1.7e-05 21.4546 -1.9e-05 -0.003116 6.90197 -2.60373 -3e-06 15.8874 -1.42883 -1.03477 12.5881 1e-05 8e-06 21.7846 -2.86 -1.60659 12.3432 -1.8e-05 -5e-06 21.5155 -2.62638 -1.42528 25.8329 2.3e-05 7e-06 8.56828 1.10927 -8.50176 11.7666 -8e-06 -6e-06 -49.3361 -5.37683 12.6175 19.7459 -1.48035 6.0001 -177.401 29.3147 -90.5095 11.2841 1.8e-05 -2e-05 13.0655 -37.6403 54.0061 33 -1.3e-05 1.9e-05 -87.5186 0.383934 -5.71571 25.2 3.2e-05 1.1e-05 -30.2622 46.2629 -11.5529 19.7461 -1.48036 -6.00008 -162.225 -23.2873 76.28 11.2841 0 -1e-06 -3.68954 28.8268 -48.7877 33.0001 1.6e-05 -1e-06 -98.2722 -13.1955 23.5392 25.1998 0.000123 0.000432 -6.03658 -21.3309 15.5128 
-131.397 75.4404 232.897 -80.708 -64.9215 -168.528 0.103456 1.85784 10.5485 13.8327 -2.22376 164.291 43.5 -4.2e-05 1e-05 -34.867 -25.6188 6.37005 42.3722 1.9e-05 0 103.643 -25.4461 36.5926 17.3 1.42109e-14 3e-06 21.4546 -1e-06 0.003093 0.103456 1.85782 -10.5485 -43.7206 -2.92313 -174.762 43.5 -2.7e-05 4e-06 -32.6913 9.72184 -7.83918 42.3723 0 1e-05 80.3065 9.82392 -3.59613 17.3 -6e-06 1.7e-05 21.4546 -1.9e-05 -0.003116 6.90197 -2.60373 -3e-06 16.3862 -1.65256 -0.924288 12.5881 1e-05 8e-06 22.7911 -3.2625 -1.30939 12.3432 -1.8e-05 -5e-06 22.5284 -2.99466 -1.10644 25.8329 2.3e-05 7e-06 8.58621 0.676716 -8.56319 11.7666 -8e-06 -6e-06 -51.6891 -5.61091 11.9914 19.7459 -1.48035 6.0001 -178.807 30.4799 -92.6055 11.2841 1.8e-05 -2e-05 12.1084 -42.3749 51.5859 33 -1.3e-05 1.9e-05 -91.6894 -3.81412 -5.51136 25.2 3.2e-05 1.1e-05 -24.9752 46.3396 -14.6088 19.7461 -1.48036 -6.00008 -161.524 -23.0851 77.8184 11.2841 0 -1e-06 -3.68158 30.1976 -48.4654 33.0001 1.6e-05 -1e-06 -101.469 -14.0663 23.6577 25.1998 0.000123 0.000432 -5.81287 -21.9861 16.0691 
-129.656 75.1587 230.242 -85.0376 -65.5424 -172.51 0.103456 1.85784 10.5485 15.377 -5.45127 164.905 43.5 -4.2e-05 1e-05 -31.2768 -26.1363 5.21745 42.3722 1.9e-05 0 103.025 -26.2731 37.3277 17.3 1.42109e-14 3e-06 21.4546 -1e-06 0.003093 0.103456 1.85782 -10.5485 -44.6396 -0.0700187 -174.244 43.5 -2.7e-05 4e-06 -30.7507 9.57652 -9.51123 42.3723 0 1e-05 80.3368 11.6814 -3.81628 17.3 -6e-06 1.7e-05 21.4546 -1.9e-05 -0.003116 6.90197 -2.60373 -3e-06 16.6888 -1.78565 -0.696488 12.5881 1e-05 8e-06 23.4065 -3.45141 -0.811415 12.3432 -1.8e-05 -5e-06 23.1457 -3.14319 -0.599622 25.8329 2.3e-05 7e-06 8.42851 0.399907 -7.98467 11.7666 -8e-06 -6e-06 -54.3671 -6.18593 11.4287 19.7459 -1.48035 6.0001 179.805 32.2983 -94.2583 11.2841 1.8e-05 -2e-05 12.1817 -50.0001 50.498 33 -1.3e-05 1.9e-05 -98.7756 1.2822 -3.74641 25.2 3.2e-05 1.1e-05 -13.4818 45.0128 -17.5406 19.7461 -1.48036 -6.00008 -159.252 -22.3083 80.5701 11.2841 0 -1e-06 -3.64512 31.525 -49.7285 33.0001 1.6e-05 -1e-06 -105.578 -14.4742 23.9525 25.1998 0.000123 0.000432 -6.62863 -23.2036 17.0538 
-128.069 75.1995 226.26 -89.3629 -65.3173 -176.057 0.103456 1.85784 10.5485 19.2275 -10.3251 164.121 43.5 -4.2e-05 1e-05 -22.5167 -28.496 5.16095 42.3722 1.9e-05 0 100.053 -26.5569 37.9155 17.3 1.42109e-14 3e-06 21.4546 -1e-06 0.003093 0.103456 1.85782 -10.5485 -46.359 0.888469 -175.833 43.5 -2.7e-05 4e-06 -35.4228 9.75263 -6.96558 42.3723 0 1e-05 79.5346 13.5704 -5.96779 17.3 -6e-06 1.7e-05 21.4546 -1.9e-05 -0.003116 6.90197 -2.60373 -3e-06 16.9548 -1.94393 -0.456006 12.5881 1e-05 8e-06 23.9507 -3.6839 -0.280988 12.3432 -1.8e-05 -5e-06 23.6922 -3.33433 -0.0575243 25.8329 2.3e-05 7e-06 7.41363 0.242997 -7.4856 11.7666 -8e-06 -6e-06 -55.6238 -6.57865 10.4865 19.7459 -1.48035 6.0001 179.876 32.6869 -96.7426 11.2841 1.8e-05 -2e-05 8.77891 -54.7475 47.9018 33 -1.3e-05 1.9e-05 -104.518 -2.27166 -2.32923 25.2 3.2e-05 1.1e-05 -18.4789 45.0816 -16.8769 19.7461 -1.48036 -6.00008 -156.831 -21.049 83.8994 11.2841 0 -1e-06 -4.62444 31.0185 -49.89 33.0001 1.6e-05 -1e-06 -109.641 -13.5985 24.7162 25.1998 0.000123 0.000432 -6.69995 -24.558 18.0242 
-124.945 76.2515 223.216 -99.7812 -69.944 173.964 0.103456 1.85784 10.5485 20.81 -14.9393 168.028 43.5 -4.2e-05 1e-05 -16.018 -28.6549 5.68405 42.3722 1.9e-05 0 89.7246 -24.6385 35.7243 17.3 2.84217e-14 3e-06 21.4546 -1e-06 0.003093 0.103456 1.85782 -10.5485 -48.7614 2.72075 -178.933 43.5 -2.7e-05 4e-06 -39.8101 10.6146 -1.79116 42.3723 0 1e-05 79.4653 15.4498 -10.2447 17.3 -6e-06 1.7e-05 21.4546 -1.9e-05 -0.003116 6.90197 -2.60373 -3e-06 17.1975 -2.52816 0.502537 12.5881 1e-05 8e-06 24.4921 -4.52807 1.79783 12.3432 -1.8e-05 -5e-06 24.2394 -4.04036 2.06798 25.8329 2.3e-05 7e-06 4.09038 0.531352 -6.42339 11.7666 -8e-06 -6e-06 -54.2553 -6.43315 9.52429 19.7459 -1.48035 6.0001 -176.624 32.2698 -101.7 11.2841 1.8e-05 -2e-05 0.990821 -61.6888 41.593 33 -1.3e-05 1.9e-05 -108.473 -8.46117 -1.66888 25.2 3.2e-05 1.1e-05 -22.4425 46.5919 -17.4418 19.7461 -1.48036 -6.00008 -154.215 -18.5951 87.5642 11.2841 0 -1e-06 -6.40186 31.9014 -50.2293 33.0001 1.6e-05 -1e-06 -113.149 -11.6967 25.958 25.1998 0.000123 0.000432 -6.30445 -25.1459 18.4414 
